<?xml version="1.0" standalone="no"?><!DOCTYPE svg PUBLIC "-//W3C//DTD SVG 1.1//EN" "http://www.w3.org/Graphics/SVG/1.1/DTD/svg11.dtd"><svg t="1662779312395" class="icon" viewBox="0 0 1024 1024" version="1.1" xmlns="http://www.w3.org/2000/svg" p-id="4269" width="128" height="128" xmlns:xlink="http://www.w3.org/1999/xlink"><path d="M520.6 837.4c-45.9 0-90.4-9-132.3-26.7-40.5-17.1-76.8-41.6-108-72.8-31.2-31.2-55.7-67.5-72.8-108-17.7-41.9-26.7-86.4-26.7-132.3 0-45.9 9-90.4 26.7-132.3 17.1-40.5 41.6-76.8 72.8-108 31.2-31.2 67.5-55.7 108-72.8 41.9-17.7 86.4-26.7 132.3-26.7 45.9 0 90.4 9 132.3 26.7 40.5 17.1 76.8 41.6 108 72.8s55.7 67.5 72.8 108c17.7 41.9 26.7 86.4 26.7 132.3s-9 90.4-26.7 132.3c-17.1 40.5-41.6 76.8-72.8 108s-67.5 55.7-108 72.8c-41.9 17.7-86.4 26.7-132.3 26.7z m0-652.8c-83.6 0-162.2 32.6-221.4 91.7-59.1 59.1-91.7 137.7-91.7 221.4s32.6 162.2 91.7 221.4c59.1 59.1 137.7 91.7 221.4 91.7 83.6 0 162.2-32.6 221.4-91.7s91.7-137.7 91.7-221.4-32.6-162.3-91.7-221.5-137.8-91.6-221.4-91.6z" fill="#6060BA" p-id="4270"></path><path d="M520.6 831.2c-7.4 0-13.4-6-13.4-13.4V165c0-7.4 6-13.4 13.4-13.4s13.4 6 13.4 13.4v652.8c0 7.4-6 13.4-13.4 13.4z" fill="#6060BA" p-id="4271"></path><path d="M511.344483 220.711888a53.4 53.4 0 1 0 18.530939-105.180057 53.4 53.4 0 1 0-18.530939 105.180057Z" fill="#ACB9F9" p-id="4272"></path><path d="M520.6 234.9c-36.8 0-66.8-29.9-66.8-66.8s29.9-66.8 66.8-66.8c36.8 0 66.8 29.9 66.8 66.8s-30 66.8-66.8 66.8z m0-106.8c-22.1 0-40 18-40 40s18 40 40 40c22.1 0 40-18 40-40s-17.9-40-40-40z" fill="#6060BA" p-id="4273"></path><path d="M482.832035 858.65814a53.4 53.4 0 1 0 75.517687-75.520322 53.4 53.4 0 1 0-75.517687 75.520322Z" fill="#ACB9F9" p-id="4274"></path><path d="M520.6 887.7c-36.8 0-66.8-29.9-66.8-66.8 0-36.8 29.9-66.8 66.8-66.8 36.8 0 66.8 29.9 66.8 66.8 0 36.8-30 66.8-66.8 66.8z m0-106.8c-22.1 0-40 18-40 40 0 22.1 18 40 40 40 22.1 0 40-18 40-40 0-22.1-17.9-40-40-40zM749.1 736.5c-3.4 0-6.8-1.3-9.4-3.9L278.1 270.9c-5.2-5.2-5.2-13.7 0-18.9 5.2-5.2 13.7-5.2 18.9 0l461.6 461.6c5.2 5.2 5.2 13.7 0 18.9-2.7 2.7-6.1 4-9.5 4z" fill="#6060BA" p-id="4275"></path><path d="M289.8 263.7m-53.4 0a53.4 53.4 0 1 0 106.8 0 53.4 53.4 0 1 0-106.8 0Z" fill="#ACB9F9" p-id="4276"></path><path d="M289.8 330.5c-36.8 0-66.8-29.9-66.8-66.8 0-36.8 29.9-66.8 66.8-66.8 36.8 0 66.8 29.9 66.8 66.8 0 36.8-30 66.8-66.8 66.8z m0-106.8c-22.1 0-40 18-40 40s18 40 40 40 40-18 40-40-17.9-40-40-40z" fill="#6060BA" p-id="4277"></path><path d="M751.4 725.3m-53.4 0a53.4 53.4 0 1 0 106.8 0 53.4 53.4 0 1 0-106.8 0Z" fill="#ACB9F9" p-id="4278"></path><path d="M751.4 792.1c-36.8 0-66.8-29.9-66.8-66.8 0-36.8 29.9-66.8 66.8-66.8 36.8 0 66.8 29.9 66.8 66.8 0 36.8-30 66.8-66.8 66.8z m0-106.8c-22.1 0-40 18-40 40 0 22.1 18 40 40 40 22.1 0 40-18 40-40 0-22.1-17.9-40-40-40z" fill="#6060BA" p-id="4279"></path><path d="M843.8 507.9H191c-7.4 0-13.4-6-13.4-13.4s6-13.4 13.4-13.4h652.8c7.4 0 13.4 6 13.4 13.4s-6 13.4-13.4 13.4z" fill="#6060BA" p-id="4280"></path><path d="M194.2 494.5m-53.4 0a53.4 53.4 0 1 0 106.8 0 53.4 53.4 0 1 0-106.8 0Z" fill="#ACB9F9" p-id="4281"></path><path d="M194.2 561.3c-36.8 0-66.8-29.9-66.8-66.8 0-36.8 29.9-66.8 66.8-66.8 36.8 0 66.8 29.9 66.8 66.8 0 36.8-30 66.8-66.8 66.8z m0-106.8c-22.1 0-40 18-40 40 0 22.1 18 40 40 40s40-18 40-40c0-22.1-17.9-40-40-40z" fill="#6060BA" p-id="4282"></path><path d="M847 494.5m-53.4 0a53.4 53.4 0 1 0 106.8 0 53.4 53.4 0 1 0-106.8 0Z" fill="#ACB9F9" p-id="4283"></path><path d="M847 561.3c-36.8 0-66.8-29.9-66.8-66.8 0-36.8 29.9-66.8 66.8-66.8s66.8 29.9 66.8 66.8c0 36.8-30 66.8-66.8 66.8z m0-106.8c-22.1 0-40 18-40 40 0 22.1 18 40 40 40s40-18 40-40c0-22.1-17.9-40-40-40z" fill="#6060BA" p-id="4284"></path><path d="M287.5 740.9c-3.4 0-6.8-1.3-9.4-3.9-5.2-5.2-5.2-13.7 0-18.9l461.6-461.6c5.2-5.2 13.7-5.2 18.9 0 5.2 5.2 5.2 13.7 0 18.9L296.9 736.9c-2.6 2.7-6 4-9.4 4z" fill="#6060BA" p-id="4285"></path><path d="M289.8 725.3m-53.4 0a53.4 53.4 0 1 0 106.8 0 53.4 53.4 0 1 0-106.8 0Z" fill="#ACB9F9" p-id="4286"></path><path d="M289.8 792.1c-36.8 0-66.8-29.9-66.8-66.8 0-36.8 29.9-66.8 66.8-66.8 36.8 0 66.8 29.9 66.8 66.8 0 36.8-30 66.8-66.8 66.8z m0-106.8c-22.1 0-40 18-40 40 0 22.1 18 40 40 40s40-18 40-40c0-22.1-17.9-40-40-40z" fill="#6060BA" p-id="4287"></path><path d="M751.4 263.7m-53.4 0a53.4 53.4 0 1 0 106.8 0 53.4 53.4 0 1 0-106.8 0Z" fill="#ACB9F9" p-id="4288"></path><path d="M751.4 330.5c-36.8 0-66.8-29.9-66.8-66.8 0-36.8 29.9-66.8 66.8-66.8 36.8 0 66.8 29.9 66.8 66.8 0 36.8-30 66.8-66.8 66.8z m0-106.8c-22.1 0-40 18-40 40s18 40 40 40c22.1 0 40-18 40-40s-17.9-40-40-40z" fill="#6060BA" p-id="4289"></path><path d="M324.4 922.9c-1.9 0-3.8-0.4-5.6-1.2-6.7-3.1-9.6-11.1-6.5-17.7l194.6-418.1c3.1-6.7 11.1-9.6 17.7-6.5 6.7 3.1 9.6 11.1 6.5 17.7l-194.6 418c-2.3 4.9-7.1 7.8-12.1 7.8z" fill="#6060BA" p-id="4290"></path><path d="M716.7 922.9c-5 0-9.9-2.9-12.1-7.7L510 497c-3.1-6.7-0.2-14.6 6.5-17.7 6.7-3.1 14.6-0.2 17.7 6.5l194.6 418.1c3.1 6.7 0.2 14.6-6.5 17.7-1.8 0.9-3.7 1.3-5.6 1.3z" fill="#6060BA" p-id="4291"></path></svg>